<svg id="Layer_1" data-name="Layer 1" xmlns="http://www.w3.org/2000/svg" viewBox="0 0 2000 2000"><defs><style>.cls-1{font-size:303.09px;font-family:Aileron-Bold, Aileron;font-weight:700;}.cls-2{letter-spacing:0em;}.cls-3{fill:#f7941d;}.cls-4{fill:#662d91;}</style></defs><title>ra</title><text class="cls-1" transform="translate(472.94 1693.01)"><tspan class="cls-2">r</tspan><tspan x="113.66" y="0">ebase</tspan><tspan class="cls-3" x="979.87" y="0">.</tspan></text><path class="cls-3" d="M639,798.94h154.6V907.6l47.05-82.9c29.13-26.89,68.34-40.33,101.95-40.33a224.79,224.79,0,0,1,25.39,1.2L967.93,609l-.07-92.54-.1-183-331.47.2H621.18a137.86,137.86,0,0,0-130,130.26.65.65,0,0,1,0,.24l0,14.54v38.06l.07,92.54.37,603.28,0,93.72.07,81.83L639,1388Z"/><path class="cls-3" d="M968.27,1212.25l-.17-299.83c-116.6-2.35-174.46,56.72-174.46,209.15v266.32l174.73-.1L968.3,1306Z"/><path class="cls-4" d="M1281.84,1000V989.58c0-15.11,0-30.22-1.89-47.22-3.78-34.93-26.44-60.43-77.44-60.43-51.93,0-80.26,30.22-84,85l-76.66.57,0,78.25c46.39-29.9,115.94-45.77,207.87-45.77Z"/><path class="cls-4" d="M1041.53,516.39l.06,92.54.15,240.27c38.94-38.33,97.68-58.87,165.49-58.87,140.71,0,193.59,61.38,201.14,148.26,1.89,23.6,2.84,50,2.84,77.43v162.43c0,37.71,1.88,71.67,9.41,127.24l97.79-.06,0-93.72L1518,608.63l-.07-92.55-.06-128.14,0-20.66V367A138.11,138.11,0,0,0,1385.22,239.4h-10.68l-333.15.2,0,93.75Z"/><path class="cls-4" d="M1184.57,1227.55c52.88,0,97.27-36.83,97.27-106.71v-40.6c-103.88-7.56-173.76,16-173.76,82.15C1108.08,1206.77,1138.3,1227.55,1184.57,1227.55Z"/><path class="cls-4" d="M1283.73,1232.27l-24.56,53.83a175.64,175.64,0,0,1-39.28,19.72l73.26,0Z"/></svg>